<svg width="49" height="48" viewBox="0 0 49 48" fill="none" xmlns="http://www.w3.org/2000/svg">
<path d="M42.1599 6H6.15991C5.05534 6 4.15991 6.89543 4.15991 8V14C4.15991 15.1046 5.05534 16 6.15991 16H42.1599C43.2645 16 44.1599 15.1046 44.1599 14V8C44.1599 6.89543 43.2645 6 42.1599 6Z" stroke="white" stroke-width="4" stroke-linecap="round" stroke-linejoin="round"/>
<path d="M8.15991 16V38C8.15991 39.0609 8.58134 40.0783 9.33148 40.8284C10.0816 41.5786 11.099 42 12.1599 42H36.1599C37.2208 42 38.2382 41.5786 38.9883 40.8284C39.7385 40.0783 40.1599 39.0609 40.1599 38V16" stroke="white" stroke-width="4" stroke-linecap="round" stroke-linejoin="round"/>
<path d="M20.1599 24H28.1599" stroke="white" stroke-width="4" stroke-linecap="round" stroke-linejoin="round"/>
</svg>
