<svg width="49" height="48" viewBox="0 0 49 48" fill="none" xmlns="http://www.w3.org/2000/svg">
<path d="M32.8298 42V38C32.8298 35.8783 31.987 33.8434 30.4867 32.3431C28.9864 30.8429 26.9516 30 24.8298 30H12.8298C10.7081 30 8.67327 30.8429 7.17298 32.3431C5.67269 33.8434 4.82983 35.8783 4.82983 38V42" stroke="white" stroke-width="4" stroke-linecap="round" stroke-linejoin="round"/>
<path d="M18.8298 22C23.2481 22 26.8298 18.4183 26.8298 14C26.8298 9.58172 23.2481 6 18.8298 6C14.4116 6 10.8298 9.58172 10.8298 14C10.8298 18.4183 14.4116 22 18.8298 22Z" stroke="white" stroke-width="4" stroke-linecap="round" stroke-linejoin="round"/>
<path d="M44.8298 42V38C44.8285 36.2275 44.2385 34.5056 43.1526 33.1046C42.0666 31.7037 40.5461 30.7031 38.8298 30.26" stroke="white" stroke-width="4" stroke-linecap="round" stroke-linejoin="round"/>
<path d="M32.8298 6.26001C34.5507 6.70061 36.0759 7.70141 37.1651 9.10463C38.2543 10.5078 38.8455 12.2337 38.8455 14.01C38.8455 15.7864 38.2543 17.5122 37.1651 18.9154C36.0759 20.3186 34.5507 21.3194 32.8298 21.76" stroke="white" stroke-width="4" stroke-linecap="round" stroke-linejoin="round"/>
</svg>
